<?xml version="1.0" encoding="UTF-8" standalone="no"?>
    <!DOCTYPE svg PUBLIC "-//W3C//DTD SVG 1.1//EN" 
      "http://www.w3.org/Graphics/SVG/1.1/DTD/svg11.dtd">
    <svg viewBox="0 0 1000 600" xmlns="http://www.w3.org/2000/svg">
      <path d="M0 0h1000v600H0z" fill="#792491"/>
      <path d="M500 550L211.325 50h577.35z"/>
      <path d="M479.667 132.374a162.687 162.687 0 0 1-108.732-62.373 162.687 162.687 0 0 0 0 198.075 162.687 162.687 0 0 1 108.732-62.373zm40.672 73.329a162.687 162.687 0 0 1 108.732 62.373 162.687 162.687 0 0 0 0-198.075 162.687 162.687 0 0 1-108.732 62.373zm-4.067-91.571a16.269 8.134 0 0 0-32.538 0v347.743a16.269 8.134 0 0 0 32.538 0z" fill="#fff"/>
    </svg>
