<svg width="500" height="300" xmlns="http://www.w3.org/2000/svg"><g fill="none" fill-rule="evenodd"><path fill="#751086" d="M0 250h500v50H0z"/><path fill="#0F54FB" d="M0 200h500v50H0z"/><path fill="#108028" d="M0 150h500v50H0z"/><path fill="#FEEC34" d="M0 100h500v50H0z"/><path fill="#FD8D25" d="M0 50h500v50H0z"/><path fill="#E20A17" d="M0 0h500v50H0z"/><path fill="#000" d="M79.907 0l149.906 149.907L79.907 299.813 5 300V0z"/><path fill="#784F17" d="M39.907 0l149.906 149.907L39.907 299.813l-40 .187V0z"/><path fill="#5BCEFA" d="M-.047 0l149.814 149.907L-.14 299.813z"/><path fill="#F5A9B8" d="M-40.093 0l149.906 149.907-149.906 149.906z"/><path fill="#FFF" d="M-80.093 0L69.813 149.907-80.093 299.813z"/></g></svg>
