<svg xmlns="http://www.w3.org/2000/svg" viewBox="0 0 595 357" width="595" height="357"><path fill="#623804" d="M0 0h595v51H0z"/><path fill="#d56300" d="M0 51h595v51H0z"/><path fill="#fedd63" d="M0 102h595v51H0z"/><path fill="#fee6b8" d="M0 153h595v51H0z"/><path fill="#fff" d="M0 204h595v51H0z"/><path fill="#555" d="M0 255h595v51H0z"/><path d="M0 306h595v51H0zM98.9 24.4a30 30 0 0 0-16.3 4.4C61.2 42.6 91.1 48.3 96 51.1c4.7 2.7 22.4 22.9 29.7-8.4 2.2-9.7-12.2-18.3-26.8-18.3m45.4 11.2c-17.7 1.9-.8 43 23.6 44.4 16.5.9 28.9-39.3-23.6-44.4m-94.4 8.9C34.2 44 43.7 73.3 69 83.6c5.1 2.1 14.2-4.7 14.4-16 .1-4.2-7.1-22.2-33.5-23.1m61 17.7c-7.1-.1-14.6 3-22.8 11.5-28.9 30.3 13.8 35.5 10.6 51.9-9.7 48.5-.9 52.5 8.3 55.6 11.7 3.9 33.8-33.4 43.1-40.4 12.4-9.4 77.9-42.2 62.4-58.8-22.3-23.8-27 7.3-57.7-1-14.6-3.9-28.3-18.8-43.9-18.8M54.4 96.5c-2.8-.1-5.5.4-8.1 1.6-11.5 5.2 10.8 36.5 20.9 37.4a15.6 15.6 0 0 0 17.6-14.7c.3-7.6-15.4-24-30.4-24.3m4 46.7c-4.5.1-8 1.2-9.6 3.3-4.1 6.2 21.6 30.4 28.7 32 6.5 1.5 12.6-13 11.4-18.7-2.2-10.4-19.2-16.7-30.5-16.6"/></svg>