<svg xmlns="http://www.w3.org/2000/svg" viewBox="0 0 1575 945">
  <path fill="#8A1E04" d="M0 0h1575v945H0z"/>
  <path fill="#C54E54" d="M0 0h1575v810H0z"/>
  <path fill="#E4ACCF" d="M0 0h1575v675H0z"/>
  <path fill="#EDEDEB" d="M0 0h1575v540H0z"/>
  <path fill="#D063A6" d="M0 0h1575v405H0z"/>
  <path fill="#B75592" d="M0 0h1575v270H0z"/>
  <path fill="#A40061" d="M0 0h1575v135H0z"/>
  <path fill="#F30943" d="M118 334c32-17 45-22-6-37 9-1 64 18 81-3 15-10-55-23-60-33 14 8 74 35 85 11-2-9-10-25-40-33 8 3 26 1 33-6-2-7-36-28-39-54 11 
15 25 42 42 47 0 0 5-13 24-18-17 0-34-11-37-19 12 20 55 9 73 26 0 0-4-12 8-26 1-3-7-9-2-11 1 2 1 8 7 7 11-5 21-19 14-33 5 3 6 15 7 22 7 0 19-1 32 11 
2-2 1-6 4-8 3 9 3 26 15 26 9 0 21-21 23-29-1 19 10 17 13 17 9 0 18-29 23-29-2 4-2 15-1 21 9 2 33-9 38-15 0 5-2 6-1 12 8 1 57-22 
68-46-13-6-23-13-33-16-6 5-6 26-14 25 4-5 12-23 5-29-32-23-16 17-19 20 0-7-15-47-29-44-2 4-7-19-17 31 1-8 11-42-38-55-3 12 14 51 10 
60-2-17-15-56-23-66-19-8-53-22-67-17-17 5 26 43 14 59 2-23-24-47-42-47-37 19-7 54-13 71-4-20-14-24-12-48-10 6-10 18-21 28-5 2-7-1-13 0-8 9 8 29 5 
37-6-13-6-32-21-34-12-7-37-1-56 11-21 6-42 65-41 72 2 11 20 12 21 23-8-5-10-13-22-12-5 9-7 16-8 30 13 8 29 16 33 29-12-5-19-23-34-17-20 55 4 45 7 53-7 
2-14-5-16 0-16 28 2 28 4 33H71c-6 5-7 23-5 32 12-6 40-12 33-28 7 2 15 2 19-1"/>
  <path fill="none" stroke="#000" d="M118 334c32-17 45-22-6-37 9-1 64 18 81-3 15-10-55-23-60-33 14 8 74 35 85 11-2-9-10-25-40-33 8 3 26 1 
33-6-2-7-36-28-39-54 11 15 25 42 42 47 0 0 5-13 24-18-17 0-34-11-37-19 12 20 55 9 73 26 0 0-4-12 8-26 1-3-7-9-2-11 1 2 1 8 7 7 11-5 21-19 14-33 5 3 6 
15 7 22 7 0 19-1 32 11 2-2 1-6 4-8 3 9 3 26 15 26 9 0 21-21 23-29-1 19 10 17 13 17 9 0 18-29 23-29-2 4-2 15-1 21 9 2 33-9 38-15 0 5-2 6-1 12 8 1 57-22 
68-46-13-6-23-13-33-16-6 5-6 26-14 25 4-5 12-23 5-29-32-23-16 17-19 20 0-7-15-47-29-44-2 4-7-19-17 31 1-8 11-42-38-55-3 12 14 51 10 
60-2-17-15-56-23-66-19-8-53-22-67-17-17 5 26 43 14 59 2-23-24-47-42-47-37 19-7 54-13 71-4-20-14-24-12-48-10 6-10 18-21 28-5 2-7-1-13 0-8 9 8 29 5 
37-6-13-6-32-21-34-12-7-37-1-56 11-21 6-42 65-41 72 2 11 20 12 21 23-8-5-10-13-22-12-5 9-7 16-8 30 13 8 29 16 33 29-12-5-19-23-34-17-20 55 4 45 7 53-7 
2-14-5-16 0-16 28 2 28 4 33H71c-6 5-7 23-5 32 12-6 40-12 33-28 7 2 15 2 19-1"/>
  <path fill="#EB1449" d="M453 192c-14 3-59 7-70 20 13 20 64 24 76 44-19-12-59-29-85-36-31-7-22 10-32 35 4 10 19 35 20 44-8-9-15-48-28-27-20 34 12 41 
25 72-8-12-25-36-37-49l-7 13c-13-4-19-3-19-3 8 19 32 57 38 69-23-23-33-45-45-70-10 0-20-4-30-6-1 22 9 35 9 51-8-23-13-73-59-57-13 27 6 78 7 
100-8-25-8-60-19-81-14-1-37-2-33 8-29 7-105 53-93 65 24 22 74 51 107 57 1-8 5-23 8-28 4 14 8 31 22 34 3-4-2-15-1-22 12 14 44 32 67 20 3-8-6-20-1-26 3 
23 56 25 61 4 1-9-8-15-8-21 8 8 11 19 24 19 28-2 9-42 4-57 7 14 16 34 26 45 8-2 11-13 7-23 25 17 27 4 18-30l-1-3 1 3c2 6 12 23 18 25 22-9-10-47-14-54 9 
8 21 33 35 36 3-2 3-15 4-18-5-33-38-55-51-76 21 19 41 58 68 72 8-11-8-41-13-50 7 4 20 23 30 24 9-5-5-30-11-38 5 1 17 14 24 13 2-12-13-27-17-36 5 0 18 
14 24 14 6-25 17-54 15-112-9 1-52 33-64 36"/>
  <path fill="none" stroke="#000" d="M453 192c-14 3-59 7-70 20 13 20 64 24 76 44-19-12-59-29-85-36-31-7-22 10-32 35 4 10 19 35 20 44-8-9-15-48-28-27-20 
34 12 41 25 72-8-12-25-36-37-49l-7 13c-13-4-19-3-19-3 8 19 32 57 38 69-23-23-33-45-45-70-10 0-20-4-30-6-1 22 9 35 9 51-8-23-13-73-59-57-13 27 6 78 7 
100-8-25-8-60-19-81-14-1-37-2-33 8-29 7-105 53-93 65 24 22 74 51 107 57 1-8 5-23 8-28 4 14 8 31 22 34 3-4-2-15-1-22 12 14 44 32 67 20 3-8-6-20-1-26 3 
23 56 25 61 4 1-9-8-15-8-21 8 8 11 19 24 19 28-2 9-42 4-57 7 14 16 34 26 45 8-2 11-13 7-23 25 17 27 4 18-30l-1-3 1 3c2 6 12 23 18 25 22-9-10-47-14-54 9 
8 21 33 35 36 3-2 3-15 4-18-5-33-38-55-51-76 21 19 41 58 68 72 8-11-8-41-13-50 7 4 20 23 30 24 9-5-5-30-11-38 5 1 17 14 24 13 2-12-13-27-17-36 5 0 18 
14 24 14 6-25 17-54 15-112-9 1-52 33-64 36"/>
</svg>