<svg xmlns="http://www.w3.org/2000/svg" viewBox="0 0 1600 960">
  <path 
style="fill:#fd8ba8;fill-rule:evenodd;stroke-width:2.23606801;fill-opacity:1" 
d="M0 0v320l800 160 800-160V0H0zm800 480L0 640v320h1600V640L800 480z"/>
  <path style="fill:#fbf2ff;fill-rule:evenodd;fill-opacity:1" d="M0 
320h1600v320H0z"/>
  <path style="fill:#c76bc5;stroke-width:.31999999;fill-opacity:1" 
d="M733.8 629.1a69.8 69.8 0 0 1-27.5-9.1 35.1 35.1 0 0 
1-11.6-13.7c-6.7-14.9-5.5-36.4 3-53.8 3.1-6.3 6.3-9.7 13.6-14.5 
12.2-8.2 35.7-17.6 60.6-24.3l3.4-1 3.5 1.8c6 3.2 10.7 6.6 15.6 11.4l2.7 
2.6-.3 4.6c-2.2 35.8-7.7 60.5-16.6 74a73 73 0 0 1-13.6 13.6 49 49 0 0 
1-32.8 8.4zm122.6 0a49.3 49.3 0 0 1-23-8.4 71 71 0 0 
1-13.7-13.7c-8.7-13.3-14.3-38.3-16.5-73.9l-.3-4.6 2.7-2.6c5-4.8 9.6-8.2 
15.6-11.4l3.5-1.8 3.4 1c14.3 3.8 31.4 9.7 42.6 14.7a79.4 79.4 0 0 1 
27.8 17.8c2.2 2.8 5.4 9.2 7.2 14.8a64 64 0 0 1-.4 45.3 35.1 35.1 0 0 
1-11.6 13.7c-4.5 3-14.3 6.8-21.1 8.1-6.2 1.2-11 1.5-16.2 1zM702.7 
515.5a77.7 77.7 0 0 1-27.7-5.1 37.9 37.9 0 0 1-17.2-25.6 96.5 96.5 0 0 
1 2.9-45.3 34.3 34.3 0 0 1 22.5-22 40 40 0 0 1 12.6-1.6c17.7 0 35.8 8.6 
54.4 25.6a177 177 0 0 1 25.6 29.4c2 3 2.1 3.3 2.5 5.9.7 6-1 14-4.6 
21.6-2 4.3-3.7 6.9-5.3 7.9-7.3 4.9-24.2 8.2-47 9.2-7.7.4-11.2.4-18.7 
0zm175.1 0c-25.3-1.2-44.7-5.7-48.4-11.4a46 46 0 0 1-7.7-27.3c.4-3 
.9-3.9 6.1-10.9 12.6-16.9 27.6-31 42.4-39.7 17.6-10.5 36.6-13.2 
50.4-7.4a35 35 0 0 1 18.7 20.6 95.5 95.5 0 0 1 3.2 44 47.4 47.4 0 0 
1-7.8 18.3c-3.2 4.3-7.6 8-11.5 9.5-2.4 1-7.3 2.2-11.2 2.9-8.4 1.3-23.4 
2-34.2 1.4z"/>
  <circle 
style="fill:#f996c9;fill-rule:evenodd;stroke:none;stroke-width:.05;stroke-miterlimit:4;stroke-dasharray:none;fill-opacity:1" 
cx="800.1" cy="495.7" r="21.5"/>
  <path style="fill:#fff71e;stroke-width:.31999999;fill-opacity:1" 
d="M798 508.5c-6.7-1.2-11.7-8.1-10.5-14.6a12.8 12.8 0 0 1 25.3 3.8 13 
13 0 0 1-14.8 10.8z"/>
  <path style="fill:#c76bc5;stroke-width:.31999999;fill-opacity:1" 
d="m795.8 
466.9-4.7-.5c-3.2-.5-11.7-7.2-21-16.6-18-18.1-30.9-38-35.2-54.8a53 53 0 
0 1-1.2-22.5 44.8 44.8 0 0 1 20.6-28.2 80.5 80.5 0 0 1 56.4-13 79 79 0 
0 1 44.5 20.8 42 42 0 0 1 11.3 21.5c.7 3.8.6 11.2 0 15.2a88.6 88.6 0 0 
1-11.8 29.8 166.2 166.2 0 0 1-41.3 45.4 12.2 12.2 0 0 1-8.1 
2.7l-4.5.3-5-.1z"/>
</svg>