<svg xmlns="http://www.w3.org/2000/svg" viewBox="0 0 800 480">
  <path fill="#ffff80" d="M0 0h800v480H0V0z"/>
  <path fill="#fff" d="M0 0h800v320H0V0z"/>
  <path fill="#ffb0ff" d="M0 0h800v160H0V0z"/>
  <path fill="none" d="M316.5 177h127v134h-127z"/>
  <path d="M417.3 214.1H410V189l-20.5 20.5c5.9 7.1 8.8 15.3 8.8 24.6 0 
10.7-3.8 19.8-11.2 27.3-7.5 7.5-16.6 11.3-27.3 
11.3s-19.8-3.8-27.3-11.2c-7.5-7.5-11.2-16.6-11.2-27.3s3.7-19.8 
11.2-27.3c7.5-7.5 16.6-11.2 27.3-11.2 9.3 0 17.5 2.9 24.6 
8.8l20.4-20.4h-25v-7.4h33.8l3.8 3.8v33.6zm-26.4 
20.1c0-8.7-3-16-9.1-22.1-6.1-6.1-13.4-9.1-22.1-9.1s-16 3-22.1 9.1c-6.1 
6.1-9.1 13.4-9.1 22.1s3 16 9.1 22.1c6.1 6.1 13.4 9.1 22.1 9.1s16-3 
22.1-9.1c6.1-6.1 9.1-13.5 9.1-22.1z"/>
  <path fill="none" d="M356.5 207h127v134h-127z"/>
  <path d="M457.3 244.1H450V219l-20.5 20.5c5.9 7.1 8.8 15.3 8.8 24.6 0 
10.7-3.8 19.8-11.2 27.3-7.5 7.5-16.6 11.3-27.3 
11.3s-19.8-3.8-27.3-11.2c-7.5-7.5-11.2-16.6-11.2-27.3s3.7-19.8 
11.2-27.3c7.5-7.5 16.6-11.2 27.3-11.2 9.3 0 17.5 2.9 24.6 
8.8l20.4-20.4h-25v-7.4h33.8l3.8 3.8v33.6zm-26.4 
20.1c0-8.7-3-16-9.1-22.1-6.1-6.1-13.4-9.1-22.1-9.1s-16 3-22.1 9.1c-6.1 
6.1-9.1 13.4-9.1 22.1s3 16 9.1 22.1c6.1 6.1 13.4 9.1 22.1 9.1s16-3 
22.1-9.1c6.1-6.1 9.1-13.5 9.1-22.1z"/>
</svg>